<!-- icon666.com - MILLIONS vector ICONS FREE --><svg id="Layer_2" viewBox="0 0 200 200" xmlns="http://www.w3.org/2000/svg" data-name="Layer 2"><path d="m67.7 57.529c-1.478 11.149 5.317 22.957 18.316 34.8a44.694 44.694 0 0 1 13.984 27.671v-120c-3.346 13.3-28.164 26.33-32.3 57.529z" fill="#96c846"></path><path d="m132.3 57.529c1.478 11.149-5.317 22.958-18.316 34.8a44.694 44.694 0 0 0 -13.984 27.671v-120c3.347 13.3 28.165 26.33 32.3 57.529z" fill="#78b432"></path><path d="m165.517 123.659c-7.093 6.511-18.711 7.544-33.4 4.242a38.265 38.265 0 0 0 -26.274 3.782l84.157-58.925c-7.684 8.877-4.635 32.68-24.483 50.901z" fill="#78b432"></path><path d="m133.795 78.355c-8.545 4.439-13.489 15-15.409 29.932a38.264 38.264 0 0 1 -12.54 23.4l84.154-58.929c-10.97 4.184-32.295-6.822-56.205 5.597z" fill="#96c846"></path><path d="m134.709 172.5c-6.823-2.144-11.8-9.234-15.132-19.908a28.429 28.429 0 0 0 -12.192-15.5l69.16 32.25c-8.564-1.642-22.745 9.158-41.836 3.158z" fill="#78b432"></path><path d="m152.07 135.264c-6.028-3.848-14.66-3.105-24.977 1.2a28.421 28.421 0 0 1 -19.708.622l69.16 32.25c-6.766-5.499-7.606-23.304-24.475-34.072z" fill="#96c846"></path><path d="m34.483 123.659c7.093 6.511 18.711 7.544 33.4 4.242a38.265 38.265 0 0 1 26.274 3.782l-84.157-58.925c7.684 8.877 4.635 32.68 24.483 50.901z" fill="#78b432"></path><path d="m66.205 78.355c8.545 4.439 13.489 15 15.409 29.932a38.264 38.264 0 0 0 12.54 23.4l-84.154-58.929c10.97 4.184 32.3-6.822 56.205 5.597z" fill="#96c846"></path><path d="m65.291 172.5c6.823-2.144 11.8-9.234 15.132-19.908a28.424 28.424 0 0 1 12.192-15.5l-69.16 32.248c8.565-1.64 22.745 9.16 41.836 3.16z" fill="#78b432"></path><path d="m47.93 135.264c6.028-3.848 14.66-3.105 24.977 1.2a28.425 28.425 0 0 0 19.708.623l-69.16 32.253c6.766-5.503 7.606-23.308 24.475-34.076z" fill="#96c846"></path><g fill="#6eaa28"><path d="m100 50-3.75 150h7.5z"></path><path d="m174.334 83.727-76.191 50.832 65.528 28.778-58.437-28.869z"></path><path d="m25.666 83.727 76.191 50.832-65.528 28.778 58.437-28.869z"></path></g></svg>