<!-- icon666.com - MILLIONS vector ICONS FREE --><svg id="Layer_2" viewBox="0 0 200 200" xmlns="http://www.w3.org/2000/svg" data-name="Layer 2"><path d="m100 40 3.75 150h-7.5z" fill="#468732"></path><path d="m61.487 113.489c14.161 23.2 28.207 35.248 38.43 38.217l-67.145-113.55c6.694 21.176 14.52 52.074 28.715 75.333z" fill="#468732"></path><path d="m85.234 100.1c13.5 23.576 17.16 41.475 14.683 51.6l-67.145-113.544c15.435 16.244 38.928 38.315 52.462 61.944z" fill="#50963c"></path><path d="m54.509 139.364c20.745 11.326 36.491 14.395 45.408 12.317l-99.917-56.324c14.3 12.948 33.714 32.655 54.509 44.007z" fill="#468732"></path><path d="m66.288 119.445c20.418 11.878 31.016 23.661 33.629 32.236l-99.917-56.324c18.633 5.616 45.821 12.18 66.288 24.088z" fill="#50963c"></path><path d="m60.606 161.5c20.517-.276 33.649-4.619 39.394-9.928h-99.6c16.411 3.656 39.64 10.207 60.206 9.928z" fill="#468732"></path><path d="m60.606 141.645c20.517.276 33.649 4.619 39.394 9.929h-99.6c16.411-3.655 39.64-10.205 60.206-9.929z" fill="#50963c"></path><path d="m77.011 173.593c13.907-8.091 21.126-16.117 22.906-21.958l-68.059 38.365c12.692-3.825 31.212-8.3 45.153-16.407z" fill="#468732"></path><path d="m68.987 160.025c14.131-7.715 24.859-9.805 30.93-8.39l-68.059 38.365c9.742-8.819 22.965-22.243 37.129-29.975z" fill="#50963c"></path><path d="m115.85 95.58c-.441 29.162-7.374 47.828-15.85 55.994v-141.574c5.834 23.33 16.291 56.348 15.85 85.58z" fill="#468732"></path><path d="m84.15 95.58c.441 29.162 7.374 47.828 15.85 55.994v-141.574c-5.834 23.33-16.291 56.348-15.85 85.58z" fill="#50963c"></path><path d="m138.513 113.489c-14.161 23.2-28.207 35.248-38.43 38.217l67.145-113.55c-6.694 21.176-14.52 52.074-28.715 75.333z" fill="#468732"></path><path d="m114.766 100.1c-13.5 23.576-17.16 41.475-14.683 51.6l67.145-113.55c-15.435 16.25-38.928 38.321-52.462 61.95z" fill="#50963c"></path><path d="m145.491 139.364c-20.745 11.326-36.5 14.395-45.408 12.317l99.917-56.324c-14.3 12.948-33.714 32.655-54.509 44.007z" fill="#468732"></path><path d="m133.712 119.445c-20.418 11.878-31.016 23.661-33.629 32.236l99.917-56.324c-18.633 5.616-45.821 12.18-66.288 24.088z" fill="#50963c"></path><path d="m139.394 161.5c-20.517-.276-33.649-4.619-39.394-9.928h99.6c-16.411 3.656-39.64 10.207-60.206 9.928z" fill="#468732"></path><path d="m139.394 141.645c-20.517.276-33.649 4.619-39.394 9.929h99.6c-16.411-3.655-39.64-10.205-60.206-9.929z" fill="#50963c"></path><path d="m122.989 173.593c-13.907-8.091-21.126-16.117-22.906-21.958l68.059 38.365c-12.692-3.825-31.212-8.3-45.153-16.407z" fill="#468732"></path><path d="m131.013 160.025c-14.131-7.715-24.859-9.805-30.93-8.39l68.059 38.365c-9.742-8.819-22.965-22.243-37.129-29.975z" fill="#50963c"></path></svg>